<svg width="24" height="24" viewBox="0 0 24 24" fill="none" xmlns="http://www.w3.org/2000/svg">
<path fill-rule="evenodd" clip-rule="evenodd" d="M3.25 10.75C3.25 6.61375 6.61375 3.25 10.75 3.25C14.8862 3.25 18.25 6.61375 18.25 10.75C18.25 14.8862 14.8862 18.25 10.75 18.25C6.61375 18.25 3.25 14.8862 3.25 10.75ZM22.8838 21.1162L18.64 16.8713C19.9563 15.1788 20.75 13.0575 20.75 10.75C20.75 5.23625 16.2638 0.75 10.75 0.75C5.23625 0.75 0.75 5.23625 0.75 10.75C0.75 16.2638 5.23625 20.75 10.75 20.75C13.0575 20.75 15.1788 19.9563 16.8713 18.64L21.1162 22.8838C21.36 23.1275 21.68 23.25 22 23.25C22.32 23.25 22.64 23.1275 22.8838 22.8838C23.3725 22.395 23.3725 21.605 22.8838 21.1162Z" fill="#757D8A"/>
</svg>
