<svg width="26" height="26" viewBox="0 0 26 26" fill="none" xmlns="http://www.w3.org/2000/svg">
<path fill-rule="evenodd" clip-rule="evenodd" d="M10.5 18C10.5 18.6875 9.9375 19.25 9.25 19.25C8.5625 19.25 8 18.6875 8 18V13C8 12.3125 8.5625 11.75 9.25 11.75C9.9375 11.75 10.5 12.3125 10.5 13V18ZM18 18C18 18.6875 17.4375 19.25 16.75 19.25C16.0625 19.25 15.5 18.6875 15.5 18V13C15.5 12.3125 16.0625 11.75 16.75 11.75C17.4375 11.75 18 12.3125 18 13V18ZM20.5 21.75C20.5 22.4387 19.94 23 19.25 23H6.75C6.06 23 5.5 22.4387 5.5 21.75V8H20.5V21.75ZM10.5 3.41C10.5 3.21625 10.7675 3 11.125 3H14.875C15.2325 3 15.5 3.21625 15.5 3.41V5.5H10.5V3.41ZM24.25 5.5H23H18V3.41C18 1.805 16.5987 0.5 14.875 0.5H11.125C9.40125 0.5 8 1.805 8 3.41V5.5H3H1.75C1.0625 5.5 0.5 6.0625 0.5 6.75C0.5 7.4375 1.0625 8 1.75 8H3V21.75C3 23.8175 4.6825 25.5 6.75 25.5H19.25C21.3175 25.5 23 23.8175 23 21.75V8H24.25C24.9375 8 25.5 7.4375 25.5 6.75C25.5 6.0625 24.9375 5.5 24.25 5.5Z" fill="#757D8A"/>
</svg>
