<svg width="50" height="46" viewBox="0 0 50 46" fill="none" xmlns="http://www.w3.org/2000/svg">
<path fill-rule="evenodd" clip-rule="evenodd" d="M24.9995 0.499756C31.452 0.499756 37.137 4.65226 39.187 10.6123C45.2845 11.4398 49.9995 16.6798 49.9995 22.9998C49.9995 26.0523 48.8895 28.9898 46.8745 31.2723C46.3795 31.8298 45.692 32.1173 44.9995 32.1173C44.412 32.1173 43.822 31.9123 43.3445 31.4923C42.312 30.5748 42.212 28.9973 43.127 27.9598C44.3345 26.5948 44.9995 24.8298 44.9995 22.9998C44.9995 18.8648 41.6345 15.4998 37.4995 15.4998H37.2495C36.0595 15.4998 35.0345 14.6598 34.7995 13.4923C33.8645 8.86226 29.7445 5.49976 24.9995 5.49976C20.257 5.49976 16.1345 8.86226 15.202 13.4923C14.967 14.6598 13.9395 15.4998 12.7495 15.4998H12.4995C8.36451 15.4998 4.99951 18.8648 4.99951 22.9998C4.99951 24.8298 5.66451 26.5948 6.87451 27.9598C7.78701 28.9973 7.68951 30.5748 6.65451 31.4923C5.61951 32.4073 4.03951 32.3048 3.12701 31.2723C1.10951 28.9898 -0.000488281 26.0523 -0.000488281 22.9998C-0.000488281 16.6798 4.71451 11.4398 10.812 10.6123C12.8645 4.65226 18.5495 0.499756 24.9995 0.499756ZM23.2625 21.2C24.2475 20.26 25.805 20.2675 26.7675 21.2325L34.2675 28.7325C35.245 29.71 35.245 31.29 34.2675 32.2675C33.78 32.755 33.14 33 32.5 33C31.86 33 31.22 32.755 30.7325 32.2675L27.5 29.035V43C27.5 44.3825 26.38 45.5 25 45.5C23.62 45.5 22.5 44.3825 22.5 43V28.89L19.2375 32.04C18.245 33.0025 16.6625 32.97 15.7025 31.9775C14.7425 30.9825 14.77 29.4025 15.7625 28.4425L23.2625 21.2Z" fill="#757D8A"/>
</svg>
