<svg width="24" height="30" viewBox="0 0 24 30" fill="none" xmlns="http://www.w3.org/2000/svg">
<path fill-rule="evenodd" clip-rule="evenodd" d="M15.3333 6.66667C15.3333 4.82833 13.8383 3.33333 12 3.33333C10.1616 3.33333 8.66665 4.82833 8.66665 6.66667C8.66665 8.505 10.1616 10 12 10C13.8383 10 15.3333 8.505 15.3333 6.66667ZM18.6666 6.66667C18.6666 10.3433 15.6766 13.3333 12 13.3333C8.32331 13.3333 5.33331 10.3433 5.33331 6.66667C5.33331 2.99 8.32331 0 12 0C15.6766 0 18.6666 2.99 18.6666 6.66667ZM0.333313 28.3333C0.333313 21.9 5.56831 16.6667 12 16.6667C18.4316 16.6667 23.6666 21.9 23.6666 28.3333C23.6666 29.2533 22.9216 30 22 30C21.0783 30 20.3333 29.2533 20.3333 28.3333C20.3333 23.7383 16.595 20 12 20C7.40498 20 3.66665 23.7383 3.66665 28.3333C3.66665 29.2533 2.92165 30 1.99998 30C1.07831 30 0.333313 29.2533 0.333313 28.3333Z" fill="#757D8A"/>
</svg>
